<svg width="345" height="61" viewBox="0 0 345 61" fill="none" xmlns="http://www.w3.org/2000/svg">
<path d="M91.6802 32.5078V45C91.2583 45.625 90.5864 46.3281 89.6646 47.1094C88.7427 47.875 87.4693 48.5469 85.8443 49.125C84.2349 49.6875 82.1568 49.9688 79.6099 49.9688C77.5318 49.9688 75.6177 49.6094 73.8677 48.8906C72.1333 48.1562 70.6255 47.0938 69.3443 45.7031C68.0786 44.2969 67.0943 42.5938 66.3911 40.5938C65.7036 38.5781 65.3599 36.2969 65.3599 33.75V31.1016C65.3599 28.5547 65.6568 26.2812 66.2505 24.2812C66.8599 22.2812 67.7505 20.5859 68.9224 19.1953C70.0943 17.7891 71.5318 16.7266 73.2349 16.0078C74.938 15.2734 76.8911 14.9062 79.0943 14.9062C81.7036 14.9062 83.8833 15.3594 85.6333 16.2656C87.3989 17.1562 88.7739 18.3906 89.7583 19.9688C90.7583 21.5469 91.3989 23.3438 91.6802 25.3594H87.1568C86.9536 24.125 86.5474 23 85.938 21.9844C85.3443 20.9688 84.4927 20.1562 83.3833 19.5469C82.2739 18.9219 80.8443 18.6094 79.0943 18.6094C77.5161 18.6094 76.1489 18.8984 74.9927 19.4766C73.8364 20.0547 72.8833 20.8828 72.1333 21.9609C71.3833 23.0391 70.8208 24.3438 70.4458 25.875C70.0864 27.4062 69.9068 29.1328 69.9068 31.0547V33.75C69.9068 35.7188 70.1333 37.4766 70.5864 39.0234C71.0552 40.5703 71.7193 41.8906 72.5786 42.9844C73.438 44.0625 74.4614 44.8828 75.6489 45.4453C76.8521 46.0078 78.1802 46.2891 79.6333 46.2891C81.2427 46.2891 82.5474 46.1562 83.5474 45.8906C84.5474 45.6094 85.3286 45.2812 85.8911 44.9062C86.4536 44.5156 86.8833 44.1484 87.1802 43.8047V36.1641H79.2818V32.5078H91.6802ZM114.04 43.6406V24.1406H118.399V49.5H114.251L114.04 43.6406ZM114.86 38.2969L116.665 38.25C116.665 39.9375 116.485 41.5 116.126 42.9375C115.782 44.3594 115.219 45.5938 114.438 46.6406C113.657 47.6875 112.633 48.5078 111.368 49.1016C110.102 49.6797 108.563 49.9688 106.751 49.9688C105.516 49.9688 104.383 49.7891 103.352 49.4297C102.336 49.0703 101.461 48.5156 100.727 47.7656C99.9927 47.0156 99.4224 46.0391 99.0161 44.8359C98.6255 43.6328 98.4302 42.1875 98.4302 40.5V24.1406H102.766V40.5469C102.766 41.6875 102.891 42.6328 103.141 43.3828C103.407 44.1172 103.758 44.7031 104.196 45.1406C104.649 45.5625 105.149 45.8594 105.696 46.0312C106.258 46.2031 106.836 46.2891 107.43 46.2891C109.274 46.2891 110.735 45.9375 111.813 45.2344C112.891 44.5156 113.665 43.5547 114.133 42.3516C114.618 41.1328 114.86 39.7812 114.86 38.2969ZM139.961 45.1641V32.1094C139.961 31.1094 139.758 30.2422 139.352 29.5078C138.961 28.7578 138.368 28.1797 137.571 27.7734C136.774 27.3672 135.79 27.1641 134.618 27.1641C133.524 27.1641 132.563 27.3516 131.735 27.7266C130.922 28.1016 130.282 28.5938 129.813 29.2031C129.36 29.8125 129.133 30.4688 129.133 31.1719H124.797C124.797 30.2656 125.032 29.3672 125.501 28.4766C125.969 27.5859 126.641 26.7812 127.516 26.0625C128.407 25.3281 129.469 24.75 130.704 24.3281C131.954 23.8906 133.344 23.6719 134.876 23.6719C136.719 23.6719 138.344 23.9844 139.751 24.6094C141.172 25.2344 142.282 26.1797 143.079 27.4453C143.891 28.6953 144.297 30.2656 144.297 32.1562V43.9688C144.297 44.8125 144.368 45.7109 144.508 46.6641C144.665 47.6172 144.891 48.4375 145.188 49.125V49.5H140.665C140.446 49 140.274 48.3359 140.149 47.5078C140.024 46.6641 139.961 45.8828 139.961 45.1641ZM140.711 34.125L140.758 37.1719H136.376C135.141 37.1719 134.04 37.2734 133.071 37.4766C132.102 37.6641 131.29 37.9531 130.633 38.3438C129.977 38.7344 129.477 39.2266 129.133 39.8203C128.79 40.3984 128.618 41.0781 128.618 41.8594C128.618 42.6562 128.797 43.3828 129.157 44.0391C129.516 44.6953 130.055 45.2188 130.774 45.6094C131.508 45.9844 132.407 46.1719 133.469 46.1719C134.797 46.1719 135.969 45.8906 136.985 45.3281C138.001 44.7656 138.805 44.0781 139.399 43.2656C140.008 42.4531 140.336 41.6641 140.383 40.8984L142.235 42.9844C142.126 43.6406 141.829 44.3672 141.344 45.1641C140.86 45.9609 140.211 46.7266 139.399 47.4609C138.602 48.1797 137.649 48.7812 136.54 49.2656C135.446 49.7344 134.211 49.9688 132.836 49.9688C131.118 49.9688 129.61 49.6328 128.313 48.9609C127.032 48.2891 126.032 47.3906 125.313 46.2656C124.61 45.125 124.258 43.8516 124.258 42.4453C124.258 41.0859 124.524 39.8906 125.055 38.8594C125.586 37.8125 126.352 36.9453 127.352 36.2578C128.352 35.5547 129.555 35.0234 130.961 34.6641C132.368 34.3047 133.938 34.125 135.672 34.125H140.711ZM155.454 28.125V49.5H151.118V24.1406H155.336L155.454 28.125ZM163.376 24L163.352 28.0312C162.993 27.9531 162.649 27.9062 162.321 27.8906C162.008 27.8594 161.649 27.8438 161.243 27.8438C160.243 27.8438 159.36 28 158.594 28.3125C157.829 28.625 157.18 29.0625 156.649 29.625C156.118 30.1875 155.696 30.8594 155.383 31.6406C155.086 32.4062 154.891 33.25 154.797 34.1719L153.579 34.875C153.579 33.3438 153.727 31.9062 154.024 30.5625C154.336 29.2188 154.813 28.0312 155.454 27C156.094 25.9531 156.907 25.1406 157.891 24.5625C158.891 23.9688 160.079 23.6719 161.454 23.6719C161.766 23.6719 162.126 23.7109 162.532 23.7891C162.938 23.8516 163.219 23.9219 163.376 24ZM182.899 44.5781V13.5H187.258V49.5H183.274L182.899 44.5781ZM165.836 37.1016V36.6094C165.836 34.6719 166.071 32.9141 166.54 31.3359C167.024 29.7422 167.704 28.375 168.579 27.2344C169.469 26.0938 170.524 25.2188 171.743 24.6094C172.977 23.9844 174.352 23.6719 175.868 23.6719C177.461 23.6719 178.852 23.9531 180.04 24.5156C181.243 25.0625 182.258 25.8672 183.086 26.9297C183.93 27.9766 184.594 29.2422 185.079 30.7266C185.563 32.2109 185.899 33.8906 186.086 35.7656V37.9219C185.915 39.7812 185.579 41.4531 185.079 42.9375C184.594 44.4219 183.93 45.6875 183.086 46.7344C182.258 47.7812 181.243 48.5859 180.04 49.1484C178.836 49.6953 177.43 49.9688 175.821 49.9688C174.336 49.9688 172.977 49.6484 171.743 49.0078C170.524 48.3672 169.469 47.4688 168.579 46.3125C167.704 45.1562 167.024 43.7969 166.54 42.2344C166.071 40.6562 165.836 38.9453 165.836 37.1016ZM170.196 36.6094V37.1016C170.196 38.3672 170.321 39.5547 170.571 40.6641C170.836 41.7734 171.243 42.75 171.79 43.5938C172.336 44.4375 173.032 45.1016 173.876 45.5859C174.719 46.0547 175.727 46.2891 176.899 46.2891C178.336 46.2891 179.516 45.9844 180.438 45.375C181.376 44.7656 182.126 43.9609 182.688 42.9609C183.251 41.9609 183.688 40.875 184.001 39.7031V34.0547C183.813 33.1953 183.54 32.3672 183.18 31.5703C182.836 30.7578 182.383 30.0391 181.821 29.4141C181.274 28.7734 180.594 28.2656 179.782 27.8906C178.985 27.5156 178.04 27.3281 176.946 27.3281C175.758 27.3281 174.735 27.5781 173.876 28.0781C173.032 28.5625 172.336 29.2344 171.79 30.0938C171.243 30.9375 170.836 31.9219 170.571 33.0469C170.321 34.1562 170.196 35.3438 170.196 36.6094ZM198.719 24.1406V49.5H194.36V24.1406H198.719ZM194.032 17.4141C194.032 16.7109 194.243 16.1172 194.665 15.6328C195.102 15.1484 195.743 14.9062 196.586 14.9062C197.415 14.9062 198.047 15.1484 198.485 15.6328C198.938 16.1172 199.165 16.7109 199.165 17.4141C199.165 18.0859 198.938 18.6641 198.485 19.1484C198.047 19.6172 197.415 19.8516 196.586 19.8516C195.743 19.8516 195.102 19.6172 194.665 19.1484C194.243 18.6641 194.032 18.0859 194.032 17.4141ZM220.633 45.1641V32.1094C220.633 31.1094 220.43 30.2422 220.024 29.5078C219.633 28.7578 219.04 28.1797 218.243 27.7734C217.446 27.3672 216.461 27.1641 215.29 27.1641C214.196 27.1641 213.235 27.3516 212.407 27.7266C211.594 28.1016 210.954 28.5938 210.485 29.2031C210.032 29.8125 209.805 30.4688 209.805 31.1719H205.469C205.469 30.2656 205.704 29.3672 206.172 28.4766C206.641 27.5859 207.313 26.7812 208.188 26.0625C209.079 25.3281 210.141 24.75 211.376 24.3281C212.626 23.8906 214.016 23.6719 215.547 23.6719C217.391 23.6719 219.016 23.9844 220.422 24.6094C221.844 25.2344 222.954 26.1797 223.751 27.4453C224.563 28.6953 224.969 30.2656 224.969 32.1562V43.9688C224.969 44.8125 225.04 45.7109 225.18 46.6641C225.336 47.6172 225.563 48.4375 225.86 49.125V49.5H221.336C221.118 49 220.946 48.3359 220.821 47.5078C220.696 46.6641 220.633 45.8828 220.633 45.1641ZM221.383 34.125L221.43 37.1719H217.047C215.813 37.1719 214.711 37.2734 213.743 37.4766C212.774 37.6641 211.961 37.9531 211.305 38.3438C210.649 38.7344 210.149 39.2266 209.805 39.8203C209.461 40.3984 209.29 41.0781 209.29 41.8594C209.29 42.6562 209.469 43.3828 209.829 44.0391C210.188 44.6953 210.727 45.2188 211.446 45.6094C212.18 45.9844 213.079 46.1719 214.141 46.1719C215.469 46.1719 216.641 45.8906 217.657 45.3281C218.672 44.7656 219.477 44.0781 220.071 43.2656C220.68 42.4531 221.008 41.6641 221.055 40.8984L222.907 42.9844C222.797 43.6406 222.501 44.3672 222.016 45.1641C221.532 45.9609 220.883 46.7266 220.071 47.4609C219.274 48.1797 218.321 48.7812 217.211 49.2656C216.118 49.7344 214.883 49.9688 213.508 49.9688C211.79 49.9688 210.282 49.6328 208.985 48.9609C207.704 48.2891 206.704 47.3906 205.985 46.2656C205.282 45.125 204.93 43.8516 204.93 42.4453C204.93 41.0859 205.196 39.8906 205.727 38.8594C206.258 37.8125 207.024 36.9453 208.024 36.2578C209.024 35.5547 210.227 35.0234 211.633 34.6641C213.04 34.3047 214.61 34.125 216.344 34.125H221.383ZM236.126 29.5547V49.5H231.79V24.1406H235.891L236.126 29.5547ZM235.094 35.8594L233.29 35.7891C233.305 34.0547 233.563 32.4531 234.063 30.9844C234.563 29.5 235.266 28.2109 236.172 27.1172C237.079 26.0234 238.157 25.1797 239.407 24.5859C240.672 23.9766 242.071 23.6719 243.602 23.6719C244.852 23.6719 245.977 23.8438 246.977 24.1875C247.977 24.5156 248.829 25.0469 249.532 25.7812C250.251 26.5156 250.797 27.4688 251.172 28.6406C251.547 29.7969 251.735 31.2109 251.735 32.8828V49.5H247.376V32.8359C247.376 31.5078 247.18 30.4453 246.79 29.6484C246.399 28.8359 245.829 28.25 245.079 27.8906C244.329 27.5156 243.407 27.3281 242.313 27.3281C241.235 27.3281 240.251 27.5547 239.36 28.0078C238.485 28.4609 237.727 29.0859 237.086 29.8828C236.461 30.6797 235.969 31.5938 235.61 32.625C235.266 33.6406 235.094 34.7188 235.094 35.8594ZM283.516 18.3984L272.219 49.5H267.602L280.61 15.375H283.586L283.516 18.3984ZM292.985 49.5L281.665 18.3984L281.594 15.375H284.571L297.626 49.5H292.985ZM292.399 36.8672V40.5703H273.227V36.8672H292.399ZM307.047 15.375V49.5H302.524V15.375H307.047Z" fill="white"/>
<path d="M25.4961 57.8576C26.1377 58.1939 26.4586 58.362 26.9036 58.4491C27.2505 58.517 27.7505 58.517 28.0974 58.4491C28.5424 58.362 28.8633 58.1939 29.5049 57.8576C35.438 54.7489 52.5005 44.5897 52.5005 30.5701V18.6834C52.5005 16.1708 52.5005 14.9145 52.0918 13.8346C51.7308 12.8806 51.1443 12.0294 50.3827 11.3545C49.5208 10.5905 48.3511 10.1494 46.0118 9.2672L29.2561 2.94838C28.6064 2.70338 28.2818 2.58088 27.9474 2.53229C27.6511 2.48924 27.3499 2.48924 27.0536 2.53229C26.7193 2.58088 26.3946 2.70338 25.7449 2.94838L8.98925 9.2672C6.64988 10.1494 5.48019 10.5905 4.61819 11.3545C3.85669 12.0294 3.2701 12.8806 2.90913 13.8346C2.5005 14.9145 2.5005 16.1708 2.5005 18.6834V30.5701C2.5005 44.5897 19.5629 54.7489 25.4961 57.8576Z" stroke="white" stroke-width="5" stroke-linecap="round" stroke-linejoin="round"/>
</svg>
